<?xml version="1.0" encoding="UTF-8"?>
<svg width="394px" height="394px" viewBox="0 0 394 394" version="1.1" xmlns="http://www.w3.org/2000/svg" xmlns:xlink="http://www.w3.org/1999/xlink">
    <!-- Generator: Sketch 52.3 (67297) - http://www.bohemiancoding.com/sketch -->
    <title>terrace_icon</title>
    <desc>Created with Sketch.</desc>
    <g id="terrace_icon" stroke="none" stroke-width="1" fill="none" fill-rule="evenodd">
        <g id="Group-10" transform="translate(11.000000, 5.000000)">
            <polygon id="Fill-1" fill="#7299A0" points="45 120.511601 45 383 320 383 320 120.511601 184.386057 24"></polygon>
            <polygon id="Stroke-2" stroke="#546F72" stroke-width="4" points="45 383 45 120.511601 184.386057 24 320 120.511601 320 383"></polygon>
            <polygon id="Fill-4" fill="#546F72" points="184 0 0 137.200677 11.4966703 153 182.742718 25.3112709 169.988766 15.7993233"></polygon>
            <polygon id="Fill-5" fill="#546F72" points="185.118208 0 171 15.7993233 183.851327 25.3112709 356.415554 153 368 137.200677 185.139681 0"></polygon>
            <polygon id="Fill-6" fill="#546F72" points="85 223 157 223 157 151 85 151"></polygon>
            <polygon id="Fill-7" fill="#546F72" points="211 223 283 223 283 151 211 151"></polygon>
            <polygon id="Fill-8" fill="#546F72" points="211 349 283 349 283 277 211 277"></polygon>
            <polygon id="Fill-9" fill="#546F72" points="92 383 151 383 151 289 92 289"></polygon>
        </g>
    </g>
</svg>