<?xml version="1.0" encoding="utf-8"?>
<!-- Generator: Adobe Illustrator 22.0.0, SVG Export Plug-In . SVG Version: 6.00 Build 0)  -->
<svg version="1.0" id="singlehouse_x5F_britishEmbassy"
	 xmlns="http://www.w3.org/2000/svg" xmlns:xlink="http://www.w3.org/1999/xlink" x="0px" y="0px" viewBox="0 0 280.9 501.3"
	 enable-background="new 0 0 280.9 501.3" xml:space="preserve">
<rect id="red_x5F_bkgd" x="14.5" y="14.7" fill="#E35C5F" width="250.5" height="445.3"/>
<g id="bricks">
	<rect x="79" y="234.3" fill="#C54D53" width="16.5" height="6.8"/>
	<rect x="14.5" y="106.5" fill="#C54D53" width="16.5" height="6.8"/>
	<rect x="169.6" y="32.7" fill="#C54D53" width="16.5" height="6.8"/>
	<rect x="182.3" y="142.5" fill="#C54D53" width="16.5" height="6.8"/>
	<rect x="147.4" y="213.7" fill="#C54D53" width="16.5" height="6.8"/>
	<rect x="183.3" y="312" fill="#C54D53" width="16.5" height="6.8"/>
	<rect x="156" y="385.7" fill="#C54D53" width="16.5" height="6.8"/>
	<rect x="77.7" y="420.1" fill="#C54D53" width="16.5" height="6.8"/>
	<rect x="95.5" y="350.5" fill="#C54D53" width="16.5" height="6.8"/>
	<rect x="24.5" y="334.7" fill="#C54D53" width="16.5" height="6.8"/>
</g>
<rect id="roof" x="11.1" y="10.7" fill="#B5454B" stroke="#000000" stroke-width="0.75" stroke-miterlimit="10" width="257.7" height="8.2"/>
<g id="windows">
	<g id="_x34_thWindows">
		<g id="_x34_leftWindow">
			<g>
				<path fill="#B5454B" d="M77.9,96.6H40.1c-0.3-4.8-0.6-4.9-0.6-5.2v-3.8c0-0.2,0.3-0.4,0.6-0.4h37.7c0.3,0,0.6,0.2,0.6,0.4v3.8
					C78.5,91.6,78.2,91.8,77.9,96.6z"/>
				
					<rect x="39.6" y="51.5" fill="#FFFFFF" stroke="#000000" stroke-width="0.75" stroke-miterlimit="10" width="38.9" height="36.7"/>
				
					<rect x="43.3" y="54.6" fill="#ADC6E5" stroke="#000000" stroke-width="0.75" stroke-miterlimit="10" width="31.4" height="33.6"/>
				
					<rect x="35.1" y="86.5" fill="#FFFFFF" stroke="#000000" stroke-width="0.75" stroke-miterlimit="10" width="48.8" height="6.1"/>
			</g>
			<line fill="#ADC6E5" stroke="#000000" stroke-width="0.75" stroke-miterlimit="10" x1="43.3" y1="69.8" x2="74.7" y2="69.8"/>
			<line fill="#ADC6E5" stroke="#000000" stroke-width="0.75" stroke-miterlimit="10" x1="53.4" y1="54.6" x2="53.4" y2="86.5"/>
			<line fill="#ADC6E5" stroke="#000000" stroke-width="0.75" stroke-miterlimit="10" x1="64.5" y1="54.6" x2="64.5" y2="86.5"/>
		</g>
		<g id="_x34_middleWindow">
			<g>
				<path fill="#B5454B" d="M158.3,96.6h-37.7c-0.3-4.8-0.6-4.9-0.6-5.2v-3.8c0-0.2,0.3-0.4,0.6-0.4h37.7c0.3,0,0.6,0.2,0.6,0.4v3.8
					C158.9,91.6,158.6,91.8,158.3,96.6z"/>
				
					<rect x="120" y="51.5" fill="#FFFFFF" stroke="#000000" stroke-width="0.75" stroke-miterlimit="10" width="38.9" height="36.7"/>
				
					<rect x="123.8" y="54.6" fill="#ADC6E5" stroke="#000000" stroke-width="0.75" stroke-miterlimit="10" width="31.4" height="33.6"/>
				
					<rect x="115.5" y="86.5" fill="#FFFFFF" stroke="#000000" stroke-width="0.75" stroke-miterlimit="10" width="48.8" height="6.1"/>
			</g>
			<line fill="#ADC6E5" stroke="#000000" stroke-width="0.75" stroke-miterlimit="10" x1="123.8" y1="69.8" x2="155.1" y2="69.8"/>
			<line fill="#ADC6E5" stroke="#000000" stroke-width="0.75" stroke-miterlimit="10" x1="133.8" y1="54.6" x2="133.8" y2="86.5"/>
			<line fill="#ADC6E5" stroke="#000000" stroke-width="0.75" stroke-miterlimit="10" x1="144.9" y1="54.6" x2="144.9" y2="86.5"/>
		</g>
		<g id="_x34_rightWindow">
			<g>
				<path fill="#B5454B" d="M237.1,96.6h-37.7c-0.3-4.8-0.6-4.9-0.6-5.2v-3.8c0-0.2,0.3-0.4,0.6-0.4h37.7c0.3,0,0.6,0.2,0.6,0.4v3.8
					C237.7,91.6,237.5,91.8,237.1,96.6z"/>
				
					<rect x="198.8" y="51.5" fill="#FFFFFF" stroke="#000000" stroke-width="0.75" stroke-miterlimit="10" width="38.9" height="36.7"/>
				
					<rect x="202.6" y="54.6" fill="#ADC6E5" stroke="#000000" stroke-width="0.75" stroke-miterlimit="10" width="31.4" height="33.6"/>
				
					<rect x="194.4" y="86.5" fill="#FFFFFF" stroke="#000000" stroke-width="0.75" stroke-miterlimit="10" width="48.8" height="6.1"/>
			</g>
			<line fill="#ADC6E5" stroke="#000000" stroke-width="0.75" stroke-miterlimit="10" x1="202.6" y1="69.8" x2="234" y2="69.8"/>
			<line fill="#ADC6E5" stroke="#000000" stroke-width="0.75" stroke-miterlimit="10" x1="212.6" y1="54.6" x2="212.6" y2="86.5"/>
			<line fill="#ADC6E5" stroke="#000000" stroke-width="0.75" stroke-miterlimit="10" x1="223.7" y1="54.6" x2="223.7" y2="86.5"/>
		</g>
	</g>
	<g id="_x33_rdWindows">
		<g id="_x33_leftWindow">
			<g>
				<g>
					<path fill="#B5454B" d="M77.9,196.8H40.1c-0.3-4.8-0.6-4.9-0.6-5.2v-3.8c0-0.2,0.3-0.4,0.6-0.4h37.7c0.3,0,0.6,0.2,0.6,0.4v3.8
						C78.5,191.8,78.2,192,77.9,196.8z"/>
					
						<rect x="39.6" y="123.7" fill="#FFFFFF" stroke="#000000" stroke-width="0.75" stroke-miterlimit="10" width="38.9" height="66.1"/>
					
						<rect x="43.3" y="126.8" fill="#ADC6E5" stroke="#000000" stroke-width="0.75" stroke-miterlimit="10" width="31.4" height="61.1"/>
					
						<rect x="35.1" y="186.7" fill="#FFFFFF" stroke="#000000" stroke-width="0.75" stroke-miterlimit="10" width="48.8" height="6.1"/>
				</g>
				<line fill="#ADC6E5" stroke="#000000" stroke-width="0.75" stroke-miterlimit="10" x1="43.3" y1="157.3" x2="74.7" y2="157.3"/>
				<line fill="#ADC6E5" stroke="#000000" stroke-width="0.75" stroke-miterlimit="10" x1="53.4" y1="126.8" x2="53.4" y2="186.7"/>
				<line fill="#ADC6E5" stroke="#000000" stroke-width="0.75" stroke-miterlimit="10" x1="64.5" y1="126.8" x2="64.5" y2="186.7"/>
			</g>
			<line fill="#ADC6E5" stroke="#000000" stroke-width="0.75" stroke-miterlimit="10" x1="43.3" y1="142.5" x2="74.7" y2="142.5"/>
			<line fill="#ADC6E5" stroke="#000000" stroke-width="0.75" stroke-miterlimit="10" x1="43.3" y1="171.4" x2="74.7" y2="171.4"/>
		</g>
		<g id="_x33_middleWindow">
			<g>
				<g>
					<path fill="#B5454B" d="M158.3,196.8h-37.7c-0.3-4.8-0.6-4.9-0.6-5.2v-3.8c0-0.2,0.3-0.4,0.6-0.4h37.7c0.3,0,0.6,0.2,0.6,0.4
						v3.8C158.9,191.8,158.6,192,158.3,196.8z"/>
					
						<rect x="120" y="123.7" fill="#FFFFFF" stroke="#000000" stroke-width="0.75" stroke-miterlimit="10" width="38.9" height="66.1"/>
					
						<rect x="123.8" y="126.8" fill="#ADC6E5" stroke="#000000" stroke-width="0.75" stroke-miterlimit="10" width="31.4" height="61.1"/>
					
						<rect x="115.5" y="186.7" fill="#FFFFFF" stroke="#000000" stroke-width="0.75" stroke-miterlimit="10" width="48.8" height="6.1"/>
				</g>
				
					<line fill="#ADC6E5" stroke="#000000" stroke-width="0.75" stroke-miterlimit="10" x1="123.8" y1="157.3" x2="155.1" y2="157.3"/>
				
					<line fill="#ADC6E5" stroke="#000000" stroke-width="0.75" stroke-miterlimit="10" x1="133.8" y1="126.8" x2="133.8" y2="186.7"/>
				
					<line fill="#ADC6E5" stroke="#000000" stroke-width="0.75" stroke-miterlimit="10" x1="144.9" y1="126.8" x2="144.9" y2="186.7"/>
			</g>
			
				<line fill="#ADC6E5" stroke="#000000" stroke-width="0.75" stroke-miterlimit="10" x1="123.8" y1="142.5" x2="155.1" y2="142.5"/>
			
				<line fill="#ADC6E5" stroke="#000000" stroke-width="0.75" stroke-miterlimit="10" x1="123.8" y1="171.4" x2="155.1" y2="171.4"/>
		</g>
		<g id="_x33_rightWindow">
			<g>
				<g>
					<path fill="#B5454B" d="M237.1,196.8h-37.7c-0.3-4.8-0.6-4.9-0.6-5.2v-3.8c0-0.2,0.3-0.4,0.6-0.4h37.7c0.3,0,0.6,0.2,0.6,0.4
						v3.8C237.7,191.8,237.5,192,237.1,196.8z"/>
					
						<rect x="198.8" y="123.7" fill="#FFFFFF" stroke="#000000" stroke-width="0.75" stroke-miterlimit="10" width="38.9" height="66.1"/>
					
						<rect x="202.6" y="126.8" fill="#ADC6E5" stroke="#000000" stroke-width="0.75" stroke-miterlimit="10" width="31.4" height="61.1"/>
					
						<rect x="194.4" y="186.7" fill="#FFFFFF" stroke="#000000" stroke-width="0.75" stroke-miterlimit="10" width="48.8" height="6.1"/>
				</g>
				<line fill="#ADC6E5" stroke="#000000" stroke-width="0.75" stroke-miterlimit="10" x1="202.6" y1="157.3" x2="234" y2="157.3"/>
				
					<line fill="#ADC6E5" stroke="#000000" stroke-width="0.75" stroke-miterlimit="10" x1="212.6" y1="126.8" x2="212.6" y2="186.7"/>
				
					<line fill="#ADC6E5" stroke="#000000" stroke-width="0.75" stroke-miterlimit="10" x1="223.7" y1="126.8" x2="223.7" y2="186.7"/>
			</g>
			<line fill="#ADC6E5" stroke="#000000" stroke-width="0.75" stroke-miterlimit="10" x1="202.6" y1="142.5" x2="234" y2="142.5"/>
			<line fill="#ADC6E5" stroke="#000000" stroke-width="0.75" stroke-miterlimit="10" x1="202.6" y1="171.4" x2="234" y2="171.4"/>
		</g>
	</g>
	<g id="_x32_ndWindows">
		<g id="_x32_leftWindow">
			<g>
				<g>
					
						<rect x="39.1" y="231.2" fill="#FFFFFF" stroke="#000000" stroke-width="0.75" stroke-miterlimit="10" width="38.9" height="98"/>
					
						<rect x="42.9" y="234.3" fill="#ADC6E5" stroke="#000000" stroke-width="0.75" stroke-miterlimit="10" width="31.4" height="94.9"/>
					
						<rect x="34.6" y="328.5" fill="#FFFFFF" stroke="#000000" stroke-width="0.75" stroke-miterlimit="10" width="48.8" height="6.1"/>
				</g>
				<line fill="#ADC6E5" stroke="#000000" stroke-width="0.75" stroke-miterlimit="10" x1="52.9" y1="234.3" x2="52.9" y2="328.4"/>
				<line fill="#ADC6E5" stroke="#000000" stroke-width="0.75" stroke-miterlimit="10" x1="64" y1="234.3" x2="64" y2="328.4"/>
			</g>
			<line fill="#ADC6E5" stroke="#000000" stroke-width="0.75" stroke-miterlimit="10" x1="42.9" y1="281.5" x2="74.2" y2="281.5"/>
			<line fill="#ADC6E5" stroke="#000000" stroke-width="0.75" stroke-miterlimit="10" x1="42.9" y1="257.8" x2="74.2" y2="257.8"/>
			<line fill="#ADC6E5" stroke="#000000" stroke-width="0.75" stroke-miterlimit="10" x1="42.9" y1="305.1" x2="74.2" y2="305.1"/>
		</g>
		<g id="_x32_middleWindow">
			<g>
				<g>
					
						<rect x="120" y="231.3" fill="#FFFFFF" stroke="#000000" stroke-width="0.75" stroke-miterlimit="10" width="38.9" height="98"/>
					
						<rect x="123.8" y="234.4" fill="#ADC6E5" stroke="#000000" stroke-width="0.75" stroke-miterlimit="10" width="31.4" height="94.9"/>
					
						<rect x="115.5" y="328.6" fill="#FFFFFF" stroke="#000000" stroke-width="0.75" stroke-miterlimit="10" width="48.8" height="6.1"/>
				</g>
				
					<line fill="#ADC6E5" stroke="#000000" stroke-width="0.75" stroke-miterlimit="10" x1="133.8" y1="234.4" x2="133.8" y2="328.5"/>
				
					<line fill="#ADC6E5" stroke="#000000" stroke-width="0.75" stroke-miterlimit="10" x1="144.9" y1="234.4" x2="144.9" y2="328.5"/>
			</g>
			
				<line fill="#ADC6E5" stroke="#000000" stroke-width="0.75" stroke-miterlimit="10" x1="123.8" y1="281.6" x2="155.1" y2="281.6"/>
			
				<line fill="#ADC6E5" stroke="#000000" stroke-width="0.75" stroke-miterlimit="10" x1="123.8" y1="257.9" x2="155.1" y2="257.9"/>
			
				<line fill="#ADC6E5" stroke="#000000" stroke-width="0.75" stroke-miterlimit="10" x1="123.8" y1="305.2" x2="155.1" y2="305.2"/>
		</g>
		<g id="_x32_rightWindow">
			<g>
				<g>
					
						<rect x="198.8" y="231.3" fill="#FFFFFF" stroke="#000000" stroke-width="0.75" stroke-miterlimit="10" width="38.9" height="98"/>
					
						<rect x="202.6" y="234.4" fill="#ADC6E5" stroke="#000000" stroke-width="0.75" stroke-miterlimit="10" width="31.4" height="94.9"/>
					
						<rect x="194.4" y="328.6" fill="#FFFFFF" stroke="#000000" stroke-width="0.75" stroke-miterlimit="10" width="48.8" height="6.1"/>
				</g>
				
					<line fill="#ADC6E5" stroke="#000000" stroke-width="0.75" stroke-miterlimit="10" x1="212.6" y1="234.4" x2="212.6" y2="328.5"/>
				
					<line fill="#ADC6E5" stroke="#000000" stroke-width="0.75" stroke-miterlimit="10" x1="223.7" y1="234.4" x2="223.7" y2="328.5"/>
			</g>
			<line fill="#ADC6E5" stroke="#000000" stroke-width="0.75" stroke-miterlimit="10" x1="202.6" y1="281.6" x2="234" y2="281.6"/>
			<line fill="#ADC6E5" stroke="#000000" stroke-width="0.75" stroke-miterlimit="10" x1="202.6" y1="257.9" x2="234" y2="257.9"/>
			<line fill="#ADC6E5" stroke="#000000" stroke-width="0.75" stroke-miterlimit="10" x1="202.6" y1="305.2" x2="234" y2="305.2"/>
		</g>
	</g>
	<g id="_x31_stWindows">
		<g id="_x31_rightWindow">
			<g>
				<g>
					<path fill="#B5454B" d="M77.4,445.4H39.7c-0.3-4.8-0.6-4.9-0.6-5.2v-3.8c0-0.2,0.3-0.4,0.6-0.4h37.7c0.3,0,0.6,0.2,0.6,0.4v3.8
						C78,440.5,77.7,440.6,77.4,445.4z"/>
					
						<rect x="39.1" y="372.4" fill="#FFFFFF" stroke="#000000" stroke-width="0.75" stroke-miterlimit="10" width="38.9" height="66.1"/>
					
						<rect x="42.9" y="375.4" fill="#ADC6E5" stroke="#000000" stroke-width="0.75" stroke-miterlimit="10" width="31.4" height="61.1"/>
					
						<rect x="34.6" y="435.4" fill="#FFFFFF" stroke="#000000" stroke-width="0.75" stroke-miterlimit="10" width="48.8" height="6.1"/>
				</g>
				<line fill="#ADC6E5" stroke="#000000" stroke-width="0.75" stroke-miterlimit="10" x1="42.9" y1="406" x2="74.2" y2="406"/>
				<line fill="#ADC6E5" stroke="#000000" stroke-width="0.75" stroke-miterlimit="10" x1="52.9" y1="375.4" x2="52.9" y2="435.4"/>
				<line fill="#ADC6E5" stroke="#000000" stroke-width="0.75" stroke-miterlimit="10" x1="64" y1="375.4" x2="64" y2="435.4"/>
			</g>
			<line fill="#ADC6E5" stroke="#000000" stroke-width="0.75" stroke-miterlimit="10" x1="42.9" y1="391.1" x2="74.2" y2="391.1"/>
			<line fill="#ADC6E5" stroke="#000000" stroke-width="0.75" stroke-miterlimit="10" x1="42.9" y1="420" x2="74.2" y2="420"/>
		</g>
		<g id="_x31_leftWindow">
			<g>
				<g>
					<path fill="#B5454B" d="M156.2,445.4h-37.7c-0.3-4.8-0.6-4.9-0.6-5.2v-3.8c0-0.2,0.3-0.4,0.6-0.4h37.7c0.3,0,0.6,0.2,0.6,0.4
						v3.8C156.8,440.5,156.6,440.6,156.2,445.4z"/>
					
						<rect x="117.9" y="372.4" fill="#FFFFFF" stroke="#000000" stroke-width="0.75" stroke-miterlimit="10" width="38.9" height="66.1"/>
					
						<rect x="121.7" y="375.4" fill="#ADC6E5" stroke="#000000" stroke-width="0.75" stroke-miterlimit="10" width="31.4" height="61.1"/>
					
						<rect x="113.5" y="435.4" fill="#FFFFFF" stroke="#000000" stroke-width="0.75" stroke-miterlimit="10" width="48.8" height="6.1"/>
				</g>
				<line fill="#ADC6E5" stroke="#000000" stroke-width="0.75" stroke-miterlimit="10" x1="121.7" y1="406" x2="153.1" y2="406"/>
				
					<line fill="#ADC6E5" stroke="#000000" stroke-width="0.75" stroke-miterlimit="10" x1="131.7" y1="375.4" x2="131.7" y2="435.4"/>
				
					<line fill="#ADC6E5" stroke="#000000" stroke-width="0.75" stroke-miterlimit="10" x1="142.8" y1="375.4" x2="142.8" y2="435.4"/>
			</g>
			
				<line fill="#ADC6E5" stroke="#000000" stroke-width="0.75" stroke-miterlimit="10" x1="121.7" y1="391.1" x2="153.1" y2="391.1"/>
			<line fill="#ADC6E5" stroke="#000000" stroke-width="0.75" stroke-miterlimit="10" x1="121.7" y1="420" x2="153.1" y2="420"/>
		</g>
	</g>
</g>
<g id="bottomArea">
	<rect x="14.5" y="460.1" fill="#E0DCD2" width="250.5" height="18"/>
	<g id="basementwindow1">
		
			<rect x="40.2" y="465.8" fill="#FFFFFF" stroke="#000000" stroke-width="0.75" stroke-miterlimit="10" width="37.6" height="12.8"/>
		
			<rect x="43.3" y="468.8" fill="#ADC6E5" stroke="#000000" stroke-width="0.75" stroke-miterlimit="10" width="31.4" height="12.5"/>
		
			<rect x="40.2" y="465.8" fill="#FFFFFF" stroke="#000000" stroke-width="0.75" stroke-miterlimit="10" width="37.6" height="12.8"/>
		
			<rect x="43.3" y="468.8" fill="#ADC6E5" stroke="#000000" stroke-width="0.75" stroke-miterlimit="10" width="31.4" height="12.5"/>
	</g>
	<g id="basementwindow2">
		
			<rect x="118.6" y="465.8" fill="#FFFFFF" stroke="#000000" stroke-width="0.75" stroke-miterlimit="10" width="37.6" height="12.9"/>
		
			<rect x="121.7" y="468.9" fill="#ADC6E5" stroke="#000000" stroke-width="0.75" stroke-miterlimit="10" width="31.4" height="12.6"/>
		
			<rect x="118.6" y="465.8" fill="#FFFFFF" stroke="#000000" stroke-width="0.75" stroke-miterlimit="10" width="37.6" height="12.9"/>
		
			<rect x="121.7" y="468.9" fill="#ADC6E5" stroke="#000000" stroke-width="0.75" stroke-miterlimit="10" width="31.4" height="12.6"/>
	</g>
	<rect x="11" y="478.1" fill="#686868" stroke="#000000" stroke-width="0.75" stroke-miterlimit="10" width="171.9" height="15.6"/>
	<g id="starirs">
		<rect x="183.4" y="460.1" fill="#A09F9F" width="81.5" height="33.6"/>
		<rect x="183.4" y="467.8" fill="#58595B" width="81.5" height="2.9"/>
		<rect x="183.4" y="477.2" fill="#58595B" width="81.5" height="2.9"/>
		<rect x="183.4" y="487.2" fill="#58595B" width="81.5" height="2.9"/>
	</g>
	<g id="railing">
		<polygon fill="none" stroke="#000000" stroke-width="0.75" stroke-miterlimit="10" points="179.4,475.4 14.5,475.4 14.5,444.7 
			19.3,444.7 179.4,444.7 		"/>
		<line fill="none" stroke="#000000" stroke-width="0.75" stroke-miterlimit="10" x1="22.5" y1="475.4" x2="22.5" y2="444.7"/>
		<line fill="none" stroke="#000000" stroke-width="0.75" stroke-miterlimit="10" x1="32.9" y1="475.4" x2="32.9" y2="444.7"/>
		<line fill="none" stroke="#000000" stroke-width="0.75" stroke-miterlimit="10" x1="41.9" y1="475.4" x2="41.9" y2="444.7"/>
		<line fill="none" stroke="#000000" stroke-width="0.75" stroke-miterlimit="10" x1="52.3" y1="475.4" x2="52.3" y2="444.7"/>
		<line fill="none" stroke="#000000" stroke-width="0.75" stroke-miterlimit="10" x1="63.2" y1="475.4" x2="63.2" y2="444.7"/>
		<line fill="none" stroke="#000000" stroke-width="0.75" stroke-miterlimit="10" x1="72.2" y1="475.4" x2="72.2" y2="444.7"/>
		<line fill="none" stroke="#000000" stroke-width="0.75" stroke-miterlimit="10" x1="82.6" y1="475.4" x2="82.6" y2="444.7"/>
		<line fill="none" stroke="#000000" stroke-width="0.75" stroke-miterlimit="10" x1="93.1" y1="475.4" x2="93.1" y2="444.8"/>
		<line fill="none" stroke="#000000" stroke-width="0.75" stroke-miterlimit="10" x1="102.1" y1="475.4" x2="102.1" y2="444.8"/>
		<line fill="none" stroke="#000000" stroke-width="0.75" stroke-miterlimit="10" x1="112.5" y1="475.4" x2="112.5" y2="444.8"/>
		<line fill="none" stroke="#000000" stroke-width="0.75" stroke-miterlimit="10" x1="123.2" y1="475.4" x2="123.2" y2="444.8"/>
		<line fill="none" stroke="#000000" stroke-width="0.75" stroke-miterlimit="10" x1="132.2" y1="475.4" x2="132.2" y2="444.8"/>
		<line fill="none" stroke="#000000" stroke-width="0.75" stroke-miterlimit="10" x1="142.6" y1="475.4" x2="142.6" y2="444.8"/>
		<line fill="none" stroke="#000000" stroke-width="0.75" stroke-miterlimit="10" x1="152.9" y1="475.4" x2="152.9" y2="444.7"/>
		<line fill="none" stroke="#000000" stroke-width="0.75" stroke-miterlimit="10" x1="161.8" y1="475.4" x2="161.8" y2="444.7"/>
		<line fill="none" stroke="#000000" stroke-width="0.75" stroke-miterlimit="10" x1="172.2" y1="475.4" x2="172.2" y2="444.7"/>
	</g>
</g>
<g id="door">
	<g id="doorFrame">
		<g>
			<rect id="doorBkgd" x="183.9" y="381.1" fill="#BAB9B6" width="70.1" height="79"/>
			<g id="greenDOor">
				<rect x="200.9" y="387.3" fill="#1E6350" width="36" height="73.4"/>
				<rect x="207.7" y="393.7" fill="#325146" width="7.5" height="7.5"/>
				<rect x="222.6" y="393.7" fill="#325146" width="7.5" height="7.5"/>
				<rect x="207.7" y="408.1" fill="#325146" width="7.5" height="13.7"/>
				<rect x="222.6" y="408.1" fill="#325146" width="7.5" height="13.7"/>
				
					<rect x="222.6" y="446.8" transform="matrix(-1 -1.224647e-16 1.224647e-16 -1 452.6535 901.0861)" fill="#325146" width="7.5" height="7.5"/>
				
					<rect x="207.7" y="446.8" transform="matrix(-1 -1.224647e-16 1.224647e-16 -1 423.0335 901.0861)" fill="#325146" width="7.5" height="7.5"/>
				
					<rect x="222.6" y="426.3" transform="matrix(-1 -1.224647e-16 1.224647e-16 -1 452.6535 866.3062)" fill="#325146" width="7.5" height="13.7"/>
				
					<rect x="207.7" y="426.3" transform="matrix(-1 -1.224647e-16 1.224647e-16 -1 423.0335 866.3062)" fill="#325146" width="7.5" height="13.7"/>
			</g>
			<g id="doorWindow_x5F_L">
				<rect x="186" y="395" fill="#ADC6E5" stroke="#000000" stroke-width="0.75" stroke-miterlimit="10" width="6.4" height="36.7"/>
				<line fill="none" stroke="#000000" stroke-width="0.75" stroke-miterlimit="10" x1="189.2" y1="395" x2="189.2" y2="431.7"/>
				<line fill="none" stroke="#000000" stroke-width="0.75" stroke-miterlimit="10" x1="186" y1="402.7" x2="192.4" y2="402.7"/>
				<line fill="none" stroke="#000000" stroke-width="0.75" stroke-miterlimit="10" x1="186" y1="413.4" x2="192.4" y2="413.4"/>
				<line fill="none" stroke="#000000" stroke-width="0.75" stroke-miterlimit="10" x1="186" y1="424" x2="192.4" y2="424"/>
			</g>
			<g id="doorWindow_x5F_R">
				
					<rect x="245.6" y="395" fill="#ADC6E5" stroke="#000000" stroke-width="0.75" stroke-miterlimit="10" width="6.4" height="36.7"/>
				<line fill="none" stroke="#000000" stroke-width="0.75" stroke-miterlimit="10" x1="248.8" y1="395" x2="248.8" y2="431.7"/>
				<line fill="none" stroke="#000000" stroke-width="0.75" stroke-miterlimit="10" x1="246" y1="402.7" x2="252.4" y2="402.7"/>
				<line fill="none" stroke="#000000" stroke-width="0.75" stroke-miterlimit="10" x1="246" y1="413.4" x2="252.4" y2="413.4"/>
				<line fill="none" stroke="#000000" stroke-width="0.75" stroke-miterlimit="10" x1="246" y1="424" x2="252.4" y2="424"/>
			</g>
		</g>
		<g id="doorPillar">
			<rect x="200.8" y="381.2" fill="#BAB9B6" width="36.1" height="6"/>
			<rect x="194" y="381" fill="#E0DCD2" stroke="#000000" stroke-width="0.75" stroke-miterlimit="10" width="6.9" height="79.1"/>
			<rect x="194.7" y="381.6" fill="#BAB9B6" width="5.7" height="3"/>
			
				<rect x="236.9" y="381" fill="#E0DCD2" stroke="#000000" stroke-width="0.75" stroke-miterlimit="10" width="6.9" height="79.2"/>
			<rect x="237.5" y="381.6" fill="#BAB9B6" width="5.7" height="3"/>
		</g>
	</g>
	<g id="doorWindow">
		<path fill="#E0DCD2" stroke="#000000" stroke-width="0.75" stroke-miterlimit="10" d="M253.4,380.8c0-19-15.4-34.5-34.5-34.5
			s-34.5,15.4-34.5,34.5H253.4z"/>
		<path fill="#ADC6E5" stroke="#000000" stroke-width="0.75" stroke-miterlimit="10" d="M238,380.8c0-10.8-8.8-19.6-19.6-19.6
			c-10.8,0-19.6,8.8-19.6,19.6H238z"/>
		<path fill="none" stroke="#000000" stroke-width="0.75" stroke-miterlimit="10" d="M210,381c0-4.3,3.7-7.7,8.4-7.7
			c4.6,0,8.4,3.5,8.4,7.7"/>
		<line fill="none" stroke="#000000" stroke-width="0.75" stroke-miterlimit="10" x1="218.4" y1="361.2" x2="218.4" y2="373.3"/>
		<line fill="none" stroke="#000000" stroke-width="0.75" stroke-miterlimit="10" x1="220.6" y1="374" x2="224.5" y2="362.2"/>
		<line fill="none" stroke="#000000" stroke-width="0.75" stroke-miterlimit="10" x1="222.7" y1="374.8" x2="229.7" y2="364.8"/>
		<line fill="none" stroke="#000000" stroke-width="0.75" stroke-miterlimit="10" x1="224.7" y1="376.5" x2="234.3" y2="369.3"/>
		<line fill="none" stroke="#000000" stroke-width="0.75" stroke-miterlimit="10" x1="225.8" y1="378.6" x2="236.8" y2="374.9"/>
		<line fill="none" stroke="#000000" stroke-width="0.75" stroke-miterlimit="10" x1="216.1" y1="373.6" x2="212.4" y2="362.2"/>
		<line fill="none" stroke="#000000" stroke-width="0.75" stroke-miterlimit="10" x1="214.1" y1="374.8" x2="207.1" y2="364.8"/>
		<line fill="none" stroke="#000000" stroke-width="0.75" stroke-miterlimit="10" x1="212.1" y1="376.5" x2="202.6" y2="369.3"/>
		<line fill="none" stroke="#000000" stroke-width="0.75" stroke-miterlimit="10" x1="210.5" y1="378.4" x2="200" y2="374.9"/>
		
			<path fill="none" stroke="#000000" stroke-width="0.75" stroke-linecap="round" stroke-linejoin="round" stroke-miterlimit="10" d="
			M185.3,380c0,0,15.1-4.6,9-16.7c-0.1-0.1,0-0.3,0.2-0.2c2.1,0.4,13.2,5,13.2-10.3c0-0.5,0.6-0.8,0.9-0.4c2.7,2.9,11,9.9,17.7-1.8
			c0.2-0.3,0.5-0.2,0.6,0.1c0.9,3.2,5,14.4,16.5,11.8c0.1,0,0.2,0.1,0.1,0.1c-1,1.7-4.1,15,8.9,17.5"/>
		<circle cx="207.8" cy="351.7" r="1.1"/>
		<circle cx="226.7" cy="350.5" r="1.1"/>
		<circle cx="243.9" cy="362.4" r="1.1"/>
		<circle cx="194.2" cy="363" r="1.1"/>
	</g>
</g>
<g id="balcony_7_">
	<g>
		<g>
			<line fill="none" stroke="#000000" stroke-width="0.75" stroke-miterlimit="10" x1="29" y1="305.5" x2="29" y2="334.7"/>
			<ellipse fill="none" stroke="#000000" stroke-width="0.75" stroke-miterlimit="10" cx="36.8" cy="315.6" rx="4.3" ry="7.2"/>
			<line fill="none" stroke="#000000" stroke-width="0.75" stroke-miterlimit="10" x1="36.8" y1="334.7" x2="36.8" y2="322.8"/>
			<line fill="none" stroke="#000000" stroke-width="0.75" stroke-miterlimit="10" x1="36.8" y1="305.5" x2="36.8" y2="308.5"/>
		</g>
		<g>
			<line fill="none" stroke="#000000" stroke-width="0.75" stroke-miterlimit="10" x1="44.9" y1="305.5" x2="44.9" y2="334.7"/>
			<ellipse fill="none" stroke="#000000" stroke-width="0.75" stroke-miterlimit="10" cx="52.7" cy="315.6" rx="4.3" ry="7.2"/>
			<line fill="none" stroke="#000000" stroke-width="0.75" stroke-miterlimit="10" x1="52.7" y1="334.7" x2="52.7" y2="322.8"/>
			<line fill="none" stroke="#000000" stroke-width="0.75" stroke-miterlimit="10" x1="52.7" y1="305.5" x2="52.7" y2="308.5"/>
		</g>
		<g>
			<line fill="none" stroke="#000000" stroke-width="0.75" stroke-miterlimit="10" x1="60.9" y1="305.5" x2="60.9" y2="334.7"/>
			<ellipse fill="none" stroke="#000000" stroke-width="0.75" stroke-miterlimit="10" cx="68.7" cy="315.6" rx="4.3" ry="7.2"/>
			<line fill="none" stroke="#000000" stroke-width="0.75" stroke-miterlimit="10" x1="68.7" y1="334.7" x2="68.7" y2="322.8"/>
			<line fill="none" stroke="#000000" stroke-width="0.75" stroke-miterlimit="10" x1="68.7" y1="305.5" x2="68.7" y2="308.5"/>
		</g>
		<g>
			<line fill="none" stroke="#000000" stroke-width="0.75" stroke-miterlimit="10" x1="76.8" y1="305.5" x2="76.8" y2="334.7"/>
			<ellipse fill="none" stroke="#000000" stroke-width="0.75" stroke-miterlimit="10" cx="84.6" cy="315.6" rx="4.3" ry="7.2"/>
			<line fill="none" stroke="#000000" stroke-width="0.75" stroke-miterlimit="10" x1="84.6" y1="334.7" x2="84.6" y2="322.8"/>
			<line fill="none" stroke="#000000" stroke-width="0.75" stroke-miterlimit="10" x1="84.6" y1="305.5" x2="84.6" y2="308.5"/>
		</g>
		<g>
			<line fill="none" stroke="#000000" stroke-width="0.75" stroke-miterlimit="10" x1="92.3" y1="305.5" x2="92.3" y2="334.7"/>
			<ellipse fill="none" stroke="#000000" stroke-width="0.75" stroke-miterlimit="10" cx="100.1" cy="315.6" rx="4.3" ry="7.2"/>
			<line fill="none" stroke="#000000" stroke-width="0.75" stroke-miterlimit="10" x1="100.1" y1="334.7" x2="100.1" y2="322.8"/>
			<line fill="none" stroke="#000000" stroke-width="0.75" stroke-miterlimit="10" x1="100.1" y1="305.5" x2="100.1" y2="308.5"/>
		</g>
		<g>
			<line fill="none" stroke="#000000" stroke-width="0.75" stroke-miterlimit="10" x1="108.3" y1="305.5" x2="108.3" y2="334.7"/>
			<ellipse fill="none" stroke="#000000" stroke-width="0.75" stroke-miterlimit="10" cx="116.1" cy="315.6" rx="4.3" ry="7.2"/>
			<line fill="none" stroke="#000000" stroke-width="0.75" stroke-miterlimit="10" x1="116.1" y1="334.7" x2="116.1" y2="322.8"/>
			<line fill="none" stroke="#000000" stroke-width="0.75" stroke-miterlimit="10" x1="116.1" y1="305.5" x2="116.1" y2="308.5"/>
		</g>
		<g>
			<line fill="none" stroke="#000000" stroke-width="0.75" stroke-miterlimit="10" x1="123.5" y1="305.5" x2="123.5" y2="334.7"/>
			<ellipse fill="none" stroke="#000000" stroke-width="0.75" stroke-miterlimit="10" cx="131.3" cy="315.6" rx="4.3" ry="7.2"/>
			<line fill="none" stroke="#000000" stroke-width="0.75" stroke-miterlimit="10" x1="131.3" y1="334.7" x2="131.3" y2="322.8"/>
			<line fill="none" stroke="#000000" stroke-width="0.75" stroke-miterlimit="10" x1="131.3" y1="305.5" x2="131.3" y2="308.5"/>
		</g>
		<g>
			<line fill="none" stroke="#000000" stroke-width="0.75" stroke-miterlimit="10" x1="139.5" y1="305.5" x2="139.5" y2="334.7"/>
			<ellipse fill="none" stroke="#000000" stroke-width="0.75" stroke-miterlimit="10" cx="147.3" cy="315.6" rx="4.3" ry="7.2"/>
			<line fill="none" stroke="#000000" stroke-width="0.75" stroke-miterlimit="10" x1="147.3" y1="334.7" x2="147.3" y2="322.8"/>
			<line fill="none" stroke="#000000" stroke-width="0.75" stroke-miterlimit="10" x1="147.3" y1="305.5" x2="147.3" y2="308.5"/>
		</g>
		<g>
			<line fill="none" stroke="#000000" stroke-width="0.75" stroke-miterlimit="10" x1="155.1" y1="305.2" x2="155.1" y2="334.4"/>
			<ellipse fill="none" stroke="#000000" stroke-width="0.75" stroke-miterlimit="10" cx="162.2" cy="315.6" rx="4.3" ry="7.2"/>
			<line fill="none" stroke="#000000" stroke-width="0.75" stroke-miterlimit="10" x1="162.2" y1="334.7" x2="162.2" y2="322.8"/>
			<line fill="none" stroke="#000000" stroke-width="0.75" stroke-miterlimit="10" x1="162.2" y1="305.5" x2="162.2" y2="308.5"/>
		</g>
		<g>
			<line fill="none" stroke="#000000" stroke-width="0.75" stroke-miterlimit="10" x1="170.4" y1="305.5" x2="170.4" y2="334.7"/>
			<ellipse fill="none" stroke="#000000" stroke-width="0.75" stroke-miterlimit="10" cx="178.2" cy="315.6" rx="4.3" ry="7.2"/>
			<line fill="none" stroke="#000000" stroke-width="0.75" stroke-miterlimit="10" x1="178.2" y1="334.7" x2="178.2" y2="322.8"/>
			<line fill="none" stroke="#000000" stroke-width="0.75" stroke-miterlimit="10" x1="178.2" y1="305.5" x2="178.2" y2="308.5"/>
		</g>
		<g>
			<line fill="none" stroke="#000000" stroke-width="0.75" stroke-miterlimit="10" x1="185.7" y1="305.5" x2="185.7" y2="334.7"/>
			<ellipse fill="none" stroke="#000000" stroke-width="0.75" stroke-miterlimit="10" cx="193.5" cy="315.6" rx="4.3" ry="7.2"/>
			<line fill="none" stroke="#000000" stroke-width="0.75" stroke-miterlimit="10" x1="193.5" y1="334.7" x2="193.5" y2="322.8"/>
			<line fill="none" stroke="#000000" stroke-width="0.75" stroke-miterlimit="10" x1="193.5" y1="305.5" x2="193.5" y2="308.5"/>
		</g>
		<g>
			<line fill="none" stroke="#000000" stroke-width="0.75" stroke-miterlimit="10" x1="201.7" y1="305.5" x2="201.7" y2="334.7"/>
			<ellipse fill="none" stroke="#000000" stroke-width="0.75" stroke-miterlimit="10" cx="209.5" cy="315.6" rx="4.3" ry="7.2"/>
			<line fill="none" stroke="#000000" stroke-width="0.75" stroke-miterlimit="10" x1="209.5" y1="334.7" x2="209.5" y2="322.8"/>
			<line fill="none" stroke="#000000" stroke-width="0.75" stroke-miterlimit="10" x1="209.5" y1="305.5" x2="209.5" y2="308.5"/>
		</g>
		<g>
			<line fill="none" stroke="#000000" stroke-width="0.75" stroke-miterlimit="10" x1="217.3" y1="305.5" x2="217.3" y2="334.7"/>
			<ellipse fill="none" stroke="#000000" stroke-width="0.75" stroke-miterlimit="10" cx="225.1" cy="315.6" rx="4.3" ry="7.2"/>
			<line fill="none" stroke="#000000" stroke-width="0.75" stroke-miterlimit="10" x1="225.1" y1="334.7" x2="225.1" y2="322.8"/>
			<line fill="none" stroke="#000000" stroke-width="0.75" stroke-miterlimit="10" x1="225.1" y1="305.5" x2="225.1" y2="308.5"/>
		</g>
		<g>
			<line fill="none" stroke="#000000" stroke-width="0.75" stroke-miterlimit="10" x1="234" y1="305.4" x2="234" y2="334.6"/>
			<line fill="none" stroke="#000000" stroke-width="0.75" stroke-miterlimit="10" x1="249" y1="305.5" x2="249" y2="334.7"/>
			<ellipse fill="none" stroke="#000000" stroke-width="0.75" stroke-miterlimit="10" cx="241" cy="315.6" rx="4.3" ry="7.2"/>
			<line fill="none" stroke="#000000" stroke-width="0.75" stroke-miterlimit="10" x1="241" y1="334.7" x2="241" y2="322.8"/>
			<line fill="none" stroke="#000000" stroke-width="0.75" stroke-miterlimit="10" x1="241" y1="305.5" x2="241" y2="308.5"/>
		</g>
		<rect x="25.7" y="305.5" fill="none" stroke="#000000" stroke-width="0.75" stroke-miterlimit="10" width="227" height="29.2"/>
	</g>
</g>
</svg>
