<?xml version="1.0" encoding="UTF-8"?>
<svg width="394px" height="394px" viewBox="0 0 394 394" version="1.1" xmlns="http://www.w3.org/2000/svg" xmlns:xlink="http://www.w3.org/1999/xlink">
    <!-- Generator: Sketch 52.3 (67297) - http://www.bohemiancoding.com/sketch -->
    <title>letter_icon</title>
    <desc>Created with Sketch.</desc>
    <g id="letter_icon" stroke="none" stroke-width="1" fill="none" fill-rule="evenodd">
        <g id="Group-10" transform="translate(14.000000, 75.000000)">
            <polygon id="Fill-1" fill="#7299A0" points="0 207 339 207 339 0 0 0"></polygon>
            <polygon id="Stroke-2" stroke="#546F72" stroke-width="5" points="0 207 339 207 339 0 0 0"></polygon>
            <path d="M29,34.5 L73,34.5" id="Stroke-4" stroke="#546F72" stroke-width="5"></path>
            <polygon id="Stroke-5" stroke="#546F72" stroke-width="5" points="260 70 304 70 304 34 260 34"></polygon>
            <path d="M118,102.5 L209,102.5" id="Stroke-6" stroke="#546F72" stroke-width="5"></path>
            <path d="M119,133.5 L191,133.5" id="Stroke-7" stroke="#546F72" stroke-width="5"></path>
            <path d="M221.01359,202.107928 C183.043424,241.093401 162.774176,260.575911 160.226394,260.575911 C154.750718,260.575911 147.312839,265.055354 165.70207,244.89786 C173.037216,236.838953 189.628618,221.181356 215.496821,197.914842 C215.157802,196.933046 214.983155,195.797845 214.983155,194.488784 C224.629797,162.631557 250.826746,130.273206 293.584277,97.413729 C357.74112,48.1296277 371.425174,63.9406301 376.120078,71.7131798 C380.814982,79.4959566 389.814405,100.256846 341.704478,133.648129 C293.584277,167.029184 265.825784,186.644645 240.409606,197.485307 C231.70811,201.177268 225.246196,202.731778 221.01359,202.107928 M221.01359,202.107928 C237.358432,185.31513 256.990734,164.922414 279.900223,140.919553 C254.27858,163.326996 232.807354,182.328835 215.496821,197.914842 C216.318686,200.287515 218.167883,201.68862 221.01359,202.107928" id="Fill-8" fill="#546F72"></path>
        </g>
    </g>
</svg>