<?xml version="1.0" encoding="UTF-8"?>
<svg width="394px" height="394px" viewBox="0 0 394 394" version="1.1" xmlns="http://www.w3.org/2000/svg" xmlns:xlink="http://www.w3.org/1999/xlink">
    <!-- Generator: Sketch 52.3 (67297) - http://www.bohemiancoding.com/sketch -->
    <title>nf_icon</title>
    <desc>Created with Sketch.</desc>
    <g id="nf_icon" stroke="none" stroke-width="1" fill="none" fill-rule="evenodd">
        <g id="Group-9" transform="translate(15.000000, 14.000000)">
            <polygon id="Fill-1" fill="#7299A0" points="35 337 373 337 373 0 35 0"></polygon>
            <polygon id="Stroke-2" stroke="#546F72" stroke-width="4" points="35 337 373 337 373 0 35 0"></polygon>
            <polygon id="Fill-4" fill="#7299A0" points="0 373 338 373 338 36 0 36"></polygon>
            <g id="Group-8" transform="translate(0.000000, 36.000000)">
                <polygon id="Stroke-5" stroke="#546F72" stroke-width="4" points="0 337 338 337 338 0 0 0"></polygon>
                <path d="M260.578278,232.31984 C246.755085,225.073347 205.818476,224.677054 195.170422,207.659118 C194.025104,205.813527 186.302714,196.381764 202.042329,173.023146 C213.019237,156.707214 216.387152,144.818437 217.600509,134.877154 C218.496351,129.136573 218.983962,122.580762 218.983962,115.005912 C219.07468,114.281263 219.029321,113.545291 218.927263,112.786673 C217.827304,81.7852705 193.900367,57 164.507655,57 C134.434556,57 110.054028,82.9741483 110.054028,115.005912 C110.643696,150.049499 116.699139,156.695892 128.197677,173.023146 C139.707554,189.327756 140.308563,197.185671 138.482858,205.65501 C136.668493,214.113026 123.35559,220.759419 82.8158741,231.629158 C42.264818,242.51022 48.320261,283 48.320261,283 L281.931085,283 C281.931085,283 284.346458,244.774749 260.578278,232.31984" id="Fill-7" fill="#546F72"></path>
            </g>
        </g>
    </g>
</svg>